<svg xmlns="http://www.w3.org/2000/svg" width="182.83" height="175.59" viewBox="0 0 182.83 175.59">
  <defs>
    <style>
      .cls-1 {
        fill: #4700e9;
      }

      .cls-2 {
        fill: #6a00f4;
      }
    </style>
  </defs>
  <g id="Layer_2" data-name="Layer 2">
    <g id="Layer_1-2" data-name="Layer 1">
      <path class="cls-1" d="M137.08,173.12,97.65,153a11.15,11.15,0,0,0-10.4.13L48.32,174.22A11.18,11.18,0,0,1,32,162.63l6.94-43.71a11.17,11.17,0,0,0-3.34-9.86L3.49,78.56a11.18,11.18,0,0,1,6-19.15l43.72-6.9a11.2,11.2,0,0,0,8.34-6.22L80.61,6.36a11.18,11.18,0,0,1,20-.25l20.08,39.45a11.18,11.18,0,0,0,8.49,6l43.88,5.82a11.18,11.18,0,0,1,6.43,19l-31.31,31.29a11.17,11.17,0,0,0-3.1,9.93l8,43.54A11.18,11.18,0,0,1,137.08,173.12Z"/>
      <path class="cls-2" d="M121.37,140.3,95.86,127.87a7.55,7.55,0,0,0-6.73.08L64,141c-5.27,2.73-11.52-1.51-10.58-7.16l4.49-27a6.75,6.75,0,0,0-2.16-6.09L35,81.86A6.83,6.83,0,0,1,38.8,70l28.29-4.27a7.17,7.17,0,0,0,5.39-3.84L84.84,37.23a7.37,7.37,0,0,1,13-.15l13,24.38a7.23,7.23,0,0,0,5.5,3.71l28.38,3.6a6.84,6.84,0,0,1,4.16,11.74L128.58,99.85a6.67,6.67,0,0,0-2,6.14l5.18,26.9C132.85,138.52,126.71,142.9,121.37,140.3Z"/>
    </g>
  </g>
</svg>
