<?xml version="1.0" encoding="UTF-8" standalone="no"?>
<!-- Created with Inkscape (http://www.inkscape.org/) -->

<svg
   xmlns:dc="http://purl.org/dc/elements/1.1/"
   xmlns:cc="http://creativecommons.org/ns#"
   xmlns:rdf="http://www.w3.org/1999/02/22-rdf-syntax-ns#"
   xmlns:svg="http://www.w3.org/2000/svg"
   xmlns="http://www.w3.org/2000/svg"
   xmlns:sodipodi="http://sodipodi.sourceforge.net/DTD/sodipodi-0.dtd"
   xmlns:inkscape="http://www.inkscape.org/namespaces/inkscape"
   width="121.1741mm"
   height="53.015652mm"
   viewBox="0 0 121.17409 53.015652"
   version="1.1"
   id="svg8"
   sodipodi:docname="zard2.svg"
   inkscape:version="0.92.4 (5da689c313, 2019-01-14)">
  <defs
     id="defs2">
    <inkscape:perspective
       sodipodi:type="inkscape:persp3d"
       inkscape:vp_x="-81.603168 : 254.284 : 1"
       inkscape:vp_y="0 : -987.99802 : 0"
       inkscape:vp_z="784.41943 : 254.284 : 1"
       inkscape:persp3d-origin="351.40814 : 303.18988 : 1"
       id="perspective839" />
  </defs>
  <sodipodi:namedview
     id="base"
     pagecolor="#ffffff"
     bordercolor="#666666"
     borderopacity="1.0"
     inkscape:pageopacity="0.0"
     inkscape:pageshadow="2"
     inkscape:zoom="1.4"
     inkscape:cx="238.88185"
     inkscape:cy="-356.03539"
     inkscape:document-units="mm"
     inkscape:current-layer="layer1"
     showgrid="false"
     inkscape:window-width="1600"
     inkscape:window-height="837"
     inkscape:window-x="-8"
     inkscape:window-y="-8"
     inkscape:window-maximized="1"
     fit-margin-top="0"
     fit-margin-left="0"
     fit-margin-right="0"
     fit-margin-bottom="0" />
  <metadata
     id="metadata5">
    <rdf:RDF>
      <cc:Work
         rdf:about="">
        <dc:format>image/svg+xml</dc:format>
        <dc:type
           rdf:resource="http://purl.org/dc/dcmitype/StillImage" />
        <dc:title></dc:title>
      </cc:Work>
    </rdf:RDF>
  </metadata>
  <g
     inkscape:label="Layer 1"
     inkscape:groupmode="layer"
     id="layer1"
     transform="translate(-26.647322,-75.034628)">
    <g
       id="g932">
      <g
         style="fill:#442178;fill-opacity:1;stroke:#00ffff;stroke-width:11.33858299;stroke-miterlimit:4;stroke-dasharray:none;stroke-opacity:1"
         id="g883">
        <path
           id="path897"
           style="fill:#353564;fill-rule:evenodd;stroke:none;stroke-width:20.56109238;stroke-linejoin:round"
           d="M 26.647322,97.778239 V 77.054498 l 44.573926,-2.01987 V 94.53935 Z"
           inkscape:connector-curvature="0" />
        <path
           id="path899"
           style="fill:#8686bf;fill-rule:evenodd;stroke:none;stroke-width:20.56109238;stroke-linejoin:round"
           d="M 26.647322,97.778239 86.161126,128.05028 V 95.933064 L 26.647322,77.054498 Z"
           inkscape:connector-curvature="0" />
        <path
           id="path901"
           style="fill:#d7d7ff;fill-rule:evenodd;stroke:none;stroke-width:20.56109238;stroke-linejoin:round"
           d="M 86.161126,128.05028 V 95.933064 l 61.660294,-4.699377 v 29.281073 z"
           inkscape:connector-curvature="0" />
        <path
           id="path903"
           style="fill:#afafde;fill-rule:evenodd;stroke:none;stroke-width:20.56109238;stroke-linejoin:round"
           d="M 26.647322,77.054498 86.161126,95.933064 147.82142,91.233687 71.221248,75.034628 Z"
           inkscape:connector-curvature="0" />
        <path
           id="path905"
           style="fill:#d5d5ff;fill-rule:evenodd;stroke:none;stroke-width:20.56109238;stroke-linejoin:round"
           d="M 26.647322,97.778239 86.161126,128.05028 147.82142,120.51476 71.221248,94.53935 Z"
           inkscape:connector-curvature="0" />
        <path
           id="path907"
           style="fill:#7f2aff;fill-rule:evenodd;stroke:none;stroke-width:20.56109238;stroke-linejoin:round"
           d="m 71.221248,94.53935 76.600172,25.97541 V 91.233687 L 71.221248,75.034628 Z"
           inkscape:connector-curvature="0" />
      </g>
      <g
         id="flowRoot815"
         style="font-style:normal;font-variant:normal;font-weight:normal;font-stretch:normal;font-size:39.9996109px;line-height:1.25;font-family:'High Tower Text';-inkscape-font-specification:'High Tower Text, Normal';font-variant-ligatures:normal;font-variant-caps:normal;font-variant-numeric:normal;font-feature-settings:normal;text-align:start;letter-spacing:0px;word-spacing:0px;writing-mode:lr-tb;text-anchor:start;fill:#442178;fill-opacity:1;stroke:none"
         transform="matrix(1.4653649,0,0,1.4653649,-0.87233425,-478.8758)"
         aria-label="zard">
        <path
           id="path911"
           d="m 37.480299,408.32782 q -0.253904,0.27343 -1.83592,4.37496 -0.195311,0.48827 -0.839836,0.35155 -0.585931,-0.11718 -0.449214,-0.80077 0.117186,-0.52734 -0.957022,-0.68359 -2.050761,-0.27343 -11.035049,-0.27343 -0.527338,0 -0.527338,-0.74218 0,-0.15625 0.07812,-0.21484 4.277302,-4.35543 10.527241,-10.8788 0.234373,-0.27344 0.234373,-0.39062 0,-0.13672 -0.390621,-0.13672 -0.214842,0 -5.33198,0.11718 -1.874981,0.0391 -2.792941,1.07421 -0.957022,1.09374 -1.445299,0.93749 -0.605463,-0.21484 -0.312497,-0.68358 0.371091,-0.58593 1.914044,-4.60933 0.195311,-0.46875 0.683587,-0.46875 0.605463,0 0.800774,0.42968 0.214841,0.48828 1.679671,0.56641 2.929659,0.13671 8.749915,0.19531 0.253904,0 0.468745,0.31249 0.214842,0.29297 0.214842,0.52734 0,0.0781 -0.03906,0.11719 -4.648392,4.72651 -10.546773,10.68349 -0.273434,0.27343 -0.273434,0.41015 0.01953,0.19531 0.624994,0.19531 5.35151,0 6.484311,-0.0391 1.699203,-0.0586 2.714818,-0.54687 1.015615,-0.48828 1.074208,-0.48828 0.136718,0 0.332028,0.0781 0.566401,0.17578 0.195311,0.58593 z"
           inkscape:connector-curvature="0" />
        <path
           id="path913"
           d="m 56.112931,409.53874 q 0,0.41016 -1.503892,1.24999 -1.48436,0.82031 -2.382789,0.82031 -0.761712,0 -1.347643,-0.74218 -0.585932,-0.74218 -0.820305,-0.74218 -0.175779,0 -1.855451,0.80077 -1.679671,0.80077 -3.378873,0.80077 -1.601547,0 -2.675755,-0.93749 -1.171864,-1.03514 -1.171864,-2.81247 0,-3.37887 7.7343,-4.8437 1.328112,-0.25391 1.347643,-1.07421 l 0.03906,-1.24999 q 0.117187,-3.20309 -2.832003,-3.20309 -0.839836,0 -1.601547,1.50389 -0.742181,1.50389 -2.148417,1.62108 -1.601547,0.15624 -1.601547,-1.34765 0,-0.93749 2.382789,-2.18748 2.499976,-1.30858 4.804641,-1.30858 3.964805,0 3.925743,3.7695 l -0.07812,8.04679 q -0.01953,1.26952 1.074208,1.26952 0.214842,0 0.820305,-0.0976 0.605463,-0.0977 0.703118,-0.0977 0.566401,0 0.566401,0.76171 z m -6.015567,-4.45308 q 0.01953,-0.48827 -0.234372,-0.64452 -0.234373,-0.15625 -0.761712,-0.0586 -4.706985,0.83984 -4.706985,3.06638 0,2.24607 2.441382,2.24607 0.976553,0 2.011699,-0.37109 1.210926,-0.42968 1.210926,-1.03514 z"
           inkscape:connector-curvature="0" />
        <path
           id="path915"
           d="m 70.839349,397.5662 q 0,2.36326 -1.367174,2.36326 -0.214842,0 -1.425767,-0.27343 -1.210926,-0.27344 -1.777327,-0.27344 -2.187478,0 -2.187478,2.94919 v 5.76167 q 0,1.01561 0.703118,1.44529 0.410152,0.25391 2.050761,0.68359 0.878898,0.21484 0.878898,0.66406 0,0.52734 -0.156249,0.62499 -0.136717,0.11719 -0.722649,0.0586 -4.296833,-0.44921 -6.796809,-0.0391 -0.781242,0.13672 -0.996084,0 -0.175779,-0.11718 -0.175779,-0.68358 0,-0.52734 1.074208,-0.83984 1.093739,-0.3125 1.093739,-1.87498 v -6.26947 q 0,-1.23046 -0.332028,-1.66014 -0.312497,-0.42969 -1.757795,-1.15234 l -0.117187,-0.0586 q -0.390621,-0.19531 -0.390621,-0.54687 0,-0.39062 0.800774,-0.66405 1.347643,-0.46875 2.460913,-1.32812 0.91796,-0.72265 1.171864,-0.72265 0.703118,0 0.839835,1.21093 0.17578,1.54295 0.410153,1.54295 0.01953,0 2.187478,-1.46483 1.425768,-0.95702 3.12497,-0.95702 1.406236,0 1.406236,1.50389 z"
           inkscape:connector-curvature="0" />
        <path
           id="path917"
           d="m 91.952426,409.49968 q 0.07812,0.17578 0.07812,0.25391 0,0.41015 -1.992168,1.34764 -2.304665,1.07421 -2.714817,1.07421 -0.351559,0 -0.820305,-1.17187 -0.449214,-1.19139 -0.624994,-1.19139 0.01953,0 -2.22654,1.03515 -2.226541,1.01561 -3.378874,1.01561 -2.5781,0 -4.472612,-1.85545 -2.285134,-2.20701 -2.285134,-6.19135 0,-3.33981 2.695286,-5.76166 2.382789,-2.12888 4.863234,-2.12888 1.757795,0 4.199178,0.44921 0.761711,0.13672 0.761711,-0.44921 v -6.67963 q 0,-1.1328 -0.54687,-1.60154 -0.351559,-0.3125 -1.66014,-0.74218 -0.624994,-0.23438 -0.624994,-0.76172 0,-0.48827 0.839836,-0.72265 1.152332,-0.35155 2.753879,-1.17186 1.328112,-0.70312 1.640609,-0.70312 0.72265,0 0.72265,0.99609 0,-0.0195 -0.05859,1.9531 -0.05859,1.95311 -0.05859,3.80856 v 17.75373 q 0,1.11327 0.996084,1.11327 0.37109,0 0.996084,-0.11718 0.683587,-0.11719 0.91796,0.44921 z m -6.035097,-1.93357 v -6.99212 q 0,-0.85937 -1.523423,-1.77733 -1.621078,-0.97655 -3.515591,-0.97655 -4.081991,0 -4.081991,5.03901 0,2.69529 1.621078,4.60933 1.621078,1.91405 3.808556,1.91405 0.996084,0 2.343727,-0.66406 1.347644,-0.66406 1.347644,-1.15233 z"
           inkscape:connector-curvature="0" />
      </g>
    </g>
  </g>
</svg>
