<svg xmlns="http://www.w3.org/2000/svg" width="182.83" height="175.59" viewBox="0 0 182.83 175.59">
  <defs>
    <style>
      .cls-1 {
        fill: #6500d4;
      }
    </style>
  </defs>
  <g id="Layer_2" data-name="Layer 2">
    <g id="Layer_1-2" data-name="Layer 1">
      <path class="cls-1" d="M137.08,173.12,97.65,153a11.15,11.15,0,0,0-10.4.13L48.32,174.22A11.18,11.18,0,0,1,32,162.63l6.94-43.71a11.17,11.17,0,0,0-3.34-9.86L3.49,78.56a11.18,11.18,0,0,1,6-19.15l43.72-6.9a11.2,11.2,0,0,0,8.34-6.22L80.61,6.36a11.18,11.18,0,0,1,20-.25l20.08,39.45a11.18,11.18,0,0,0,8.49,6l43.88,5.82a11.18,11.18,0,0,1,6.43,19l-31.31,31.29a11.17,11.17,0,0,0-3.1,9.93l8,43.54A11.18,11.18,0,0,1,137.08,173.12Z"/>
    </g>
  </g>
</svg>
